<svg xmlns="http://www.w3.org/2000/svg" viewBox="0 0 100 100" fill="none">
  <rect width="100" height="100" rx="22" fill="#070B1B"/>
  <defs>
    <linearGradient id="g" x1="0" y1="0" x2="100" y2="100" gradientUnits="userSpaceOnUse">
      <stop stop-color="#00A8FF"/>
      <stop offset=".6" stop-color="#3366FF"/>
      <stop offset="1" stop-color="#7C3AED"/>
    </linearGradient>
  </defs>
  <path d="M18 14 C18 14 18 62 18 67 C18 82 33 92 50 92 C67 92 82 82 82 67 C82 62 82 44 82 44" stroke="url(#g)" stroke-width="8" stroke-linecap="round"/>
  <path d="M34 14 C34 14 34 56 34 61 C34 72 42 79 50 79 C58 79 66 72 66 61 C66 56 66 44 66 44" stroke="url(#g)" stroke-width="7" stroke-linecap="round" opacity=".66"/>
  <circle cx="82" cy="30" r="5" fill="url(#g)"/>
  <line x1="82" y1="35" x2="82" y2="52" stroke="url(#g)" stroke-width="3.5" stroke-linecap="round"/>
  <ellipse cx="82" cy="57" rx="5.5" ry="8" fill="#7C3AED"/>
</svg>
